<svg width="21" height="19" viewBox="0 0 21 19" fill="none" xmlns="http://www.w3.org/2000/svg">
<mask id="path-1-inside-1_7308_517" fill="white">
<path fill-rule="evenodd" clip-rule="evenodd" d="M14.25 11.2583L21 5.62917L14.25 0V3.12917H9V8.12917H14.25V11.2583Z"/>
</mask>
<path d="M21 5.62917L21.3202 6.01316L21.7807 5.62917L21.3202 5.24517L21 5.62917ZM14.25 11.2583H13.75V12.3264L14.5702 11.6423L14.25 11.2583ZM14.25 0L14.5702 -0.383994L13.75 -1.06803V0H14.25ZM14.25 3.12917V3.62917H14.75V3.12917H14.25ZM9 3.12917V2.62917H8.5V3.12917H9ZM9 8.12917H8.5V8.62917H9V8.12917ZM14.25 8.12917H14.75V7.62917H14.25V8.12917ZM20.6798 5.24517L13.9298 10.8743L14.5702 11.6423L21.3202 6.01316L20.6798 5.24517ZM13.9298 0.383994L20.6798 6.01316L21.3202 5.24517L14.5702 -0.383994L13.9298 0.383994ZM14.75 3.12917V0H13.75V3.12917H14.75ZM9 3.62917H14.25V2.62917H9V3.62917ZM9.5 8.12917V3.12917H8.5V8.12917H9.5ZM14.25 7.62917H9V8.62917H14.25V7.62917ZM14.75 11.2583V8.12917H13.75V11.2583H14.75Z" fill="black" mask="url(#path-1-inside-1_7308_517)"/>
<mask id="path-3-inside-2_7308_517" fill="white">
<path fill-rule="evenodd" clip-rule="evenodd" d="M6.75 7.00046L4.92117e-07 12.6296L6.75 18.2588L6.75 15.1296L12 15.1296L12 10.1296L6.75 10.1296L6.75 7.00046Z"/>
</mask>
<path d="M4.92117e-07 12.6296L-0.320232 12.2456L-0.780683 12.6296L-0.320232 13.0136L4.92117e-07 12.6296ZM6.75 7.00046L7.25 7.00046L7.25 5.93243L6.42977 6.61646L6.75 7.00046ZM6.75 18.2588L6.42977 18.6428L7.25 19.3268L7.25 18.2588L6.75 18.2588ZM6.75 15.1296L6.75 14.6296L6.25 14.6296L6.25 15.1296L6.75 15.1296ZM12 15.1296L12 15.6296L12.5 15.6296L12.5 15.1296L12 15.1296ZM12 10.1296L12.5 10.1296L12.5 9.62962L12 9.62962L12 10.1296ZM6.75 10.1296L6.25 10.1296L6.25 10.6296L6.75 10.6296L6.75 10.1296ZM0.320233 13.0136L7.07023 7.38445L6.42977 6.61646L-0.320232 12.2456L0.320233 13.0136ZM7.07023 17.8748L0.320233 12.2456L-0.320232 13.0136L6.42977 18.6428L7.07023 17.8748ZM6.25 15.1296L6.25 18.2588L7.25 18.2588L7.25 15.1296L6.25 15.1296ZM12 14.6296L6.75 14.6296L6.75 15.6296L12 15.6296L12 14.6296ZM11.5 10.1296L11.5 15.1296L12.5 15.1296L12.5 10.1296L11.5 10.1296ZM6.75 10.6296L12 10.6296L12 9.62962L6.75 9.62962L6.75 10.6296ZM6.25 7.00046L6.25 10.1296L7.25 10.1296L7.25 7.00046L6.25 7.00046Z" fill="black" mask="url(#path-3-inside-2_7308_517)"/>
</svg>
